<svg height="512pt" viewBox="90 100 320 320" width="512pt" xmlns="http://www.w3.org/2000/svg">
    <g fill="#ff6344">
        <path d="m365.359375 297.167969c-1.804687-.550781-3.785156-.285157-5.324219.8125-.671875.480469-1.402344.902343-2.183594 1.257812-2.40625 1.097657-5.070312 1.417969-7.648437.972657.519531-4.015626.785156-8.109376.785156-12.265626 0-.988281-.019531-1.972656-.046875-2.953124-.984375-64.375-33.964844-120.988282-83.761718-154.617188-4.796876-3.238281-11.257813-.199219-12.019532 5.539062-3.863281 28.996094-20.96875 54.863282-46.695312 69.757813-15.265625 8.835937-27.84375 21.800781-36.210938 37.367187-3.078125-1.980468-6.601562-3.335937-10.382812-3.878906-3.289063-.472656-6.273438-2.179687-8.34375-4.769531-.539063-.671875-.996094-1.378906-1.378906-2.113281-.878907-1.671875-2.527344-2.800782-4.386719-3.125-2.539063-.445313-5.066407.738281-6.421875 2.933594-5.800782 9.378906-9.195313 20.402343-9.328125 32.207031-.007813.242187-.011719.484375-.011719.726562 0 13.828125 10.742188 25.136719 24.332031 26.058594-4.003906 1.960937-7.839843 4.199219-11.476562 6.703125-3.0625 2.109375-4.585938 5.828125-3.769531 9.457031.601562 2.65625 2.347656 4.949219 4.816406 6.089844 1.085937.503906 2.136718 1.113281 3.136718 1.835937 3.882813 2.800782 6.550782 6.980469 7.464844 11.679688 3.253906 16.742188 17.515625 29.3125 34.636719 30.355469 16.707031 15.660156 39.023437 25.398437 63.496094 25.738281 30.0625.417969 56.972656-13.132812 74.664062-34.574219 12.640625 5.636719 27.613281.410157 33.929688-12.074219.109375-.21875.21875-.4375.320312-.652343 5.210938-10.597657 7.15625-21.964844 6.214844-32.953125-.222656-2.570313-1.941406-4.761719-4.40625-5.515625zm0 0" />
    </g>
    <path d="m211.65625 335.3125c12.414062 11.640625 28.28125 17.636719 44.335938 17.636719 28.585937 0 60.808593-28.21875 64.457031-56.570313.742187-5.746094.507812-9.925781.496093-10.925781-.582031-37.898437-14.621093-73.925781-38.847656-102.03125-3.417968-3.964844-9.691406-3.328125-12.265625 1.226563-10.898437 19.296874-26.839843 35.699218-46.335937 46.984374-10.496094 6.078126-19.078125 14.933594-24.8125 25.605469-12.488282 23.242188-6.273438 60.03125 12.972656 78.074219zm0 0" fill="#ffcf5d" />
    <path d="m335.988281 394.652344h-160c-4.140625 0-7.5 3.355468-7.5 7.5 0 4.140625 3.359375 7.5 7.5 7.5h160c4.144531 0 7.5-3.359375 7.5-7.5 0-4.144532-3.355469-7.5-7.5-7.5zm0 0" />
    <path d="m374.269531 294.578125c-1.730469-2.1875-4.0625-3.769531-6.722656-4.589844-1.328125-.398437-2.6875-.597656-4.046875-.597656h-.019531c-1.730469 0-3.421875.320313-5.023438.957031.023438-.820312.03125-1.628906.03125-2.398437 0-.929688-.023437-1.921875-.050781-3.140625-.261719-16.398438-2.53125-32.6875-6.769531-48.398438-4.121094-15.269531-10.089844-30.039062-17.75-43.910156-7.542969-13.640625-16.710938-26.390625-27.261719-37.910156-10.519531-11.488282-22.390625-21.730469-35.28125-30.429688-2.46875-1.679687-5.457031-2.609375-8.410156-2.609375h-.058594c-3.621094.007813-7.148438 1.308594-9.929688 3.679688-2.851562 2.410156-4.769531 5.949219-5.25 9.699219-3.5625 26.699218-19.640624 50.71875-43.019531 64.25-16.53125 9.570312-30.03125 23.511718-39.0625 40.3125-.949219 1.757812-1.160156 3.789062-.578125 5.707031.578125 1.921875 1.871094 3.5 3.628906 4.449219 1.628907.871093 3.601563 1.113281 5.351563.671874h.019531l.089844-.03125h.03125c.019531-.007812.050781-.019531.066406-.019531l.210938-.058593c.023437-.011719.050781-.023438.082031-.03125l.019531-.007813h.011719c.789063-.261719 1.527344-.644531 2.1875-1.144531.871094-.648438 1.570313-1.46875 2.089844-2.4375 7.710937-14.359375 19.25-26.261719 33.359375-34.429688 6.851562-3.972656 13.242187-8.722656 18.992187-14.128906 5.667969-5.332031 10.71875-11.320312 15.039063-17.792969 4.300781-6.449219 7.878906-13.390625 10.621094-20.628906 2.769531-7.320313 4.6875-14.960937 5.71875-22.699219.039062-.171875.050781-.191406.101562-.238281l.027344-.03125c.0625-.0625.152344-.089844.183594-.089844.027343.007813.007812 0 .078124.039063 49.46875 33.421875 79.550782 88.941406 80.460938 148.519531v.121094c.027344.980469.050781 1.871093.050781 2.71875 0 3.761719-.242187 7.5625-.730469 11.300781-.511718 4.011719 2.207032 7.679688 6.1875 8.351562 1.171876.199219 2.351563.300782 3.511719.300782h.007813c2.921875 0 5.863281-.632813 8.492187-1.839844.488281-.222656.988281-.472656 1.46875-.742188.039063.902344.0625 1.800782.0625 2.699219 0 8.472657-1.910156 16.652344-5.671875 24.3125l-.050781.101563c-.078125.167968-.148437.320312-.21875.457031-3.1875 6.300781-9.570313 10.222656-16.648437 10.230469-2.609376 0-5.152344-.539063-7.550782-1.609375-.972656-.429688-2-.648438-3.050781-.648438-2.25 0-4.359375 1-5.789063 2.730469-16.722656 20.238281-41.332031 31.847656-67.519531 31.859375-.441406 0-.851562-.011719-1.261719-.011719-21.710937-.308594-42.472656-8.730468-58.460937-23.710937-1.277344-1.199219-2.9375-1.910157-4.667969-2.007813-13.722656-.832031-25.132812-10.820312-27.730468-24.3125-1.289063-6.601562-5-12.398437-10.441407-16.328125-1.378906-.992187-2.859375-1.851562-4.390625-2.5625-.179687-.078125-.519531-.390625-.636718-.929687l-.011719-.03125c-.011719-.078125-.019531-.160156-.03125-.277344 0-.390625.191406-.941406.742187-1.320312 3.308594-2.28125 6.847656-4.339844 10.527344-6.148438 3.039062-1.492188 4.710938-4.851562 4.0625-8.179688-.652344-3.320312-3.472656-5.8125-6.851562-6.03125-9.738282-.660156-17.351563-8.820312-17.339844-18.582031 0-.160156 0-.328125.007812-.519531v-.117188c.113282-9.84375 2.84375-19.460937 7.894532-27.84375 3.855468-.257812 6.855468-3.367187 6.976562-7.238281.0625-2.011719-.660156-3.917969-2.027344-5.378906-1.371094-1.449219-3.222656-2.289063-5.222656-2.359375-.007812 0-.007812 0-.019531 0-2.539063-.050781-4.972657.539062-7.148438 1.769531-2.042969 1.148438-3.769531 2.820313-5 4.820313-6.691406 10.808594-10.3125 23.277344-10.453125 36.058594v.011718c-.007812.257813-.007812.53125-.007812.800782.007812 11.089843 5.46875 21.457031 14.609375 27.730468-3.648438 3.167969-5.738281 7.726563-5.75 12.527344 0 1.210938.140625 2.441406.410156 3.628906v.011719c1.140625 5 4.410156 9.089844 8.980469 11.21875.660156.300781 1.296875.671875 1.898437 1.101563 2.339844 1.699218 3.9375 4.191406 4.488281 7.039062 1.84375 9.410156 6.53125 17.851562 13.570313 24.390625 7.011719 6.53125 15.742187 10.601563 25.230469 11.761719 9.011718 8.039062 19.238281 14.371094 30.390625 18.808594 11.558593 4.601562 23.738281 7.023437 36.199219 7.199218h.230468c.410156 0 .820313.011719 1.230469.011719h.007813c14.640624 0 28.78125-3.027344 42.039062-9.011719 6.363281-2.855468 12.460938-6.398437 18.121094-10.507812 5.601562-4.070313 10.820312-8.730469 15.492187-13.839844 2.695313.6875 5.46875 1.027344 8.25 1.027344h.027344c6.109375 0 12.109375-1.667969 17.371094-4.839844 5.390625-3.25 9.757812-7.960938 12.617187-13.597656.121094-.242188.242188-.480469.363282-.730469 2.398437-4.882813 4.226562-10.019531 5.4375-15.289063 1.179687-5.121093 1.769531-10.390624 1.769531-15.640624 0-1.972657-.078125-3.972657-.25-5.960938-.222657-2.742188-1.25-5.332031-2.960938-7.484375zm0 0" />
    <path d="m292.605469 329.671875c-3.113281 2.730469-3.425781 7.46875-.695313 10.585937 1.480469 1.691407 3.554688 2.554688 5.644532 2.554688 1.753906 0 3.515624-.609375 4.9375-1.859375 14.167968-12.414063 23.425781-28.3125 25.398437-43.617187.726563-5.664063.605469-9.992188.5625-11.625l-.011719-.371094c-.597656-39.152344-15.039062-77.085938-40.664062-106.816406-3.191406-3.703126-8-5.628907-12.855469-5.148438-4.863281.480469-9.210937 3.316406-11.621094 7.585938-10.410156 18.433593-25.472656 33.710937-43.5625 44.183593-11.703125 6.777344-21.273437 16.644531-27.664062 28.546875-14 26.058594-7.246094 66.753906 14.453125 87.09375 3.019531 2.835938 7.769531 2.679688 10.601562-.339844 2.832032-3.023437 2.679688-7.769531-.34375-10.601562-16.914062-15.855469-22.394531-48.769531-11.5-69.054688 5.078125-9.445312 12.671875-17.28125 21.96875-22.664062 20.402344-11.8125 37.386719-29.027344 49.160156-49.808594 23.335938 27.074219 36.484376 61.609375 37.03125 97.230469l.011719.585937c.042969 1.433594.136719 4.785157-.445312 9.285157-1.511719 11.730469-8.949219 24.214843-20.40625 34.253906zm0 0" />
</svg>